<svg width="431" height="261" viewBox="0 0 431 261" fill="none" xmlns="http://www.w3.org/2000/svg">
<path d="M342.471 252.914V253.804H336.887V253.025L339.682 249.914C340.026 249.531 340.291 249.207 340.479 248.941C340.67 248.671 340.803 248.431 340.877 248.22C340.955 248.005 340.995 247.787 340.995 247.564C340.995 247.283 340.936 247.029 340.819 246.802C340.705 246.572 340.538 246.388 340.315 246.251C340.092 246.115 339.823 246.046 339.506 246.046C339.127 246.046 338.811 246.121 338.557 246.269C338.307 246.414 338.12 246.617 337.995 246.878C337.87 247.14 337.807 247.441 337.807 247.781H336.723C336.723 247.3 336.829 246.861 337.039 246.462C337.25 246.064 337.563 245.748 337.977 245.513C338.391 245.275 338.901 245.156 339.506 245.156C340.045 245.156 340.506 245.251 340.889 245.443C341.272 245.63 341.565 245.896 341.768 246.24C341.975 246.58 342.079 246.978 342.079 247.435C342.079 247.685 342.036 247.939 341.95 248.197C341.868 248.451 341.752 248.705 341.604 248.958C341.459 249.212 341.289 249.462 341.094 249.708C340.903 249.955 340.698 250.197 340.479 250.435L338.194 252.914H342.471ZM345.213 249.005H345.987C346.366 249.005 346.678 248.943 346.924 248.818C347.174 248.689 347.36 248.515 347.481 248.296C347.606 248.074 347.668 247.824 347.668 247.546C347.668 247.218 347.614 246.943 347.504 246.72C347.395 246.498 347.231 246.33 347.012 246.216C346.793 246.103 346.516 246.046 346.18 246.046C345.875 246.046 345.606 246.107 345.371 246.228C345.141 246.345 344.959 246.513 344.827 246.732C344.698 246.951 344.633 247.208 344.633 247.505H343.549C343.549 247.072 343.659 246.677 343.877 246.322C344.096 245.966 344.403 245.683 344.797 245.472C345.196 245.261 345.657 245.156 346.18 245.156C346.696 245.156 347.147 245.248 347.534 245.431C347.92 245.611 348.221 245.88 348.436 246.24C348.651 246.595 348.758 247.039 348.758 247.57C348.758 247.785 348.707 248.015 348.606 248.261C348.508 248.503 348.354 248.73 348.143 248.941C347.936 249.152 347.666 249.326 347.334 249.462C347.002 249.595 346.604 249.662 346.139 249.662H345.213V249.005ZM345.213 249.896V249.246H346.139C346.682 249.246 347.131 249.31 347.487 249.439C347.842 249.568 348.121 249.74 348.325 249.955C348.532 250.169 348.676 250.406 348.758 250.664C348.844 250.917 348.887 251.171 348.887 251.425C348.887 251.824 348.819 252.177 348.682 252.486C348.549 252.794 348.36 253.056 348.114 253.271C347.871 253.486 347.586 253.648 347.258 253.757C346.93 253.867 346.573 253.921 346.186 253.921C345.815 253.921 345.465 253.869 345.137 253.763C344.813 253.658 344.526 253.505 344.276 253.306C344.026 253.103 343.83 252.855 343.69 252.562C343.549 252.265 343.479 251.927 343.479 251.548H344.563C344.563 251.845 344.627 252.105 344.756 252.328C344.889 252.55 345.077 252.724 345.319 252.849C345.565 252.97 345.854 253.031 346.186 253.031C346.518 253.031 346.803 252.974 347.041 252.861C347.284 252.744 347.469 252.568 347.598 252.333C347.731 252.099 347.797 251.804 347.797 251.449C347.797 251.093 347.723 250.802 347.575 250.576C347.426 250.345 347.215 250.175 346.942 250.066C346.672 249.953 346.354 249.896 345.987 249.896H345.213Z" fill="#1C1B1F"/>
<path d="M267.082 245.226V253.804H265.998V246.58L263.812 247.376V246.398L266.912 245.226H267.082ZM275.625 248.859V250.16C275.625 250.859 275.562 251.449 275.437 251.929C275.312 252.41 275.132 252.796 274.898 253.089C274.664 253.382 274.38 253.595 274.048 253.728C273.72 253.857 273.349 253.921 272.935 253.921C272.607 253.921 272.304 253.88 272.027 253.798C271.75 253.716 271.5 253.585 271.277 253.406C271.058 253.222 270.871 252.984 270.714 252.691C270.558 252.398 270.439 252.042 270.357 251.625C270.275 251.207 270.234 250.718 270.234 250.16V248.859C270.234 248.16 270.296 247.574 270.421 247.101C270.55 246.628 270.732 246.25 270.966 245.964C271.201 245.675 271.482 245.468 271.81 245.343C272.142 245.218 272.513 245.156 272.923 245.156C273.255 245.156 273.56 245.197 273.837 245.279C274.119 245.357 274.369 245.484 274.587 245.66C274.806 245.832 274.992 246.062 275.144 246.351C275.3 246.636 275.419 246.986 275.501 247.4C275.584 247.814 275.625 248.3 275.625 248.859ZM274.535 250.335V248.677C274.535 248.294 274.511 247.958 274.464 247.669C274.421 247.376 274.357 247.126 274.271 246.919C274.185 246.712 274.076 246.544 273.943 246.416C273.814 246.287 273.664 246.193 273.492 246.134C273.324 246.072 273.134 246.041 272.923 246.041C272.666 246.041 272.437 246.089 272.238 246.187C272.039 246.281 271.871 246.431 271.734 246.638C271.601 246.845 271.5 247.117 271.429 247.453C271.359 247.789 271.324 248.197 271.324 248.677V250.335C271.324 250.718 271.345 251.056 271.388 251.349C271.435 251.642 271.503 251.896 271.593 252.111C271.683 252.322 271.793 252.496 271.921 252.632C272.05 252.769 272.199 252.871 272.367 252.937C272.539 253 272.728 253.031 272.935 253.031C273.201 253.031 273.433 252.98 273.632 252.878C273.832 252.777 273.998 252.619 274.13 252.404C274.267 252.185 274.369 251.906 274.435 251.566C274.501 251.222 274.535 250.812 274.535 250.335Z" fill="#1C1B1F"/>
<path d="M199.015 248.859V250.16C199.015 250.859 198.953 251.449 198.828 251.929C198.703 252.41 198.523 252.796 198.289 253.089C198.054 253.382 197.771 253.595 197.439 253.728C197.111 253.857 196.74 253.921 196.326 253.921C195.998 253.921 195.695 253.88 195.417 253.798C195.14 253.716 194.89 253.585 194.667 253.406C194.449 253.222 194.261 252.984 194.105 252.691C193.949 252.398 193.83 252.042 193.748 251.625C193.665 251.207 193.624 250.718 193.624 250.16V248.859C193.624 248.16 193.687 247.574 193.812 247.101C193.941 246.628 194.123 246.25 194.357 245.964C194.591 245.675 194.873 245.468 195.201 245.343C195.533 245.218 195.904 245.156 196.314 245.156C196.646 245.156 196.951 245.197 197.228 245.279C197.509 245.357 197.759 245.484 197.978 245.66C198.197 245.832 198.382 246.062 198.535 246.351C198.691 246.636 198.81 246.986 198.892 247.4C198.974 247.814 199.015 248.3 199.015 248.859ZM197.925 250.335V248.677C197.925 248.294 197.902 247.958 197.855 247.669C197.812 247.376 197.748 247.126 197.662 246.919C197.576 246.712 197.466 246.544 197.333 246.416C197.205 246.287 197.054 246.193 196.882 246.134C196.714 246.072 196.525 246.041 196.314 246.041C196.056 246.041 195.828 246.089 195.628 246.187C195.429 246.281 195.261 246.431 195.124 246.638C194.992 246.845 194.89 247.117 194.82 247.453C194.749 247.789 194.714 248.197 194.714 248.677V250.335C194.714 250.718 194.736 251.056 194.779 251.349C194.826 251.642 194.894 251.896 194.984 252.111C195.074 252.322 195.183 252.496 195.312 252.632C195.441 252.769 195.589 252.871 195.757 252.937C195.929 253 196.119 253.031 196.326 253.031C196.591 253.031 196.824 252.98 197.023 252.878C197.222 252.777 197.388 252.619 197.521 252.404C197.658 252.185 197.759 251.906 197.826 251.566C197.892 251.222 197.925 250.812 197.925 250.335ZM201.781 249.744L200.914 249.521L201.341 245.273H205.718V246.275H202.261L202.003 248.595C202.16 248.505 202.357 248.421 202.595 248.343C202.837 248.265 203.115 248.226 203.427 248.226C203.822 248.226 204.175 248.294 204.488 248.431C204.8 248.564 205.066 248.755 205.285 249.005C205.507 249.255 205.677 249.556 205.794 249.908C205.912 250.259 205.97 250.652 205.97 251.085C205.97 251.496 205.914 251.873 205.8 252.216C205.691 252.56 205.525 252.861 205.302 253.119C205.08 253.373 204.798 253.57 204.458 253.71C204.123 253.851 203.726 253.921 203.269 253.921C202.925 253.921 202.599 253.875 202.29 253.781C201.986 253.683 201.712 253.537 201.47 253.341C201.232 253.142 201.037 252.896 200.884 252.603C200.736 252.306 200.642 251.958 200.603 251.56H201.634C201.681 251.88 201.775 252.15 201.915 252.369C202.056 252.587 202.24 252.753 202.466 252.867C202.697 252.976 202.964 253.031 203.269 253.031C203.527 253.031 203.755 252.986 203.955 252.896C204.154 252.806 204.322 252.677 204.458 252.509C204.595 252.341 204.699 252.138 204.769 251.9C204.843 251.662 204.88 251.394 204.88 251.097C204.88 250.828 204.843 250.578 204.769 250.347C204.695 250.117 204.583 249.916 204.435 249.744C204.29 249.572 204.113 249.439 203.902 249.345C203.691 249.248 203.449 249.199 203.175 249.199C202.812 249.199 202.537 249.248 202.349 249.345C202.165 249.443 201.976 249.576 201.781 249.744Z" fill="#1C1B1F"/>
<path d="M129.45 248.859V250.16C129.45 250.859 129.387 251.449 129.262 251.929C129.137 252.41 128.957 252.796 128.723 253.089C128.489 253.382 128.206 253.595 127.873 253.728C127.545 253.857 127.174 253.921 126.76 253.921C126.432 253.921 126.129 253.88 125.852 253.798C125.575 253.716 125.325 253.585 125.102 253.406C124.883 253.222 124.696 252.984 124.54 252.691C124.383 252.398 124.264 252.042 124.182 251.625C124.1 251.207 124.059 250.718 124.059 250.16V248.859C124.059 248.16 124.122 247.574 124.247 247.101C124.375 246.628 124.557 246.25 124.791 245.964C125.026 245.675 125.307 245.468 125.635 245.343C125.967 245.218 126.338 245.156 126.748 245.156C127.081 245.156 127.385 245.197 127.663 245.279C127.944 245.357 128.194 245.484 128.413 245.66C128.631 245.832 128.817 246.062 128.969 246.351C129.125 246.636 129.245 246.986 129.327 247.4C129.409 247.814 129.45 248.3 129.45 248.859ZM128.36 250.335V248.677C128.36 248.294 128.336 247.958 128.29 247.669C128.247 247.376 128.182 247.126 128.096 246.919C128.01 246.712 127.901 246.544 127.768 246.416C127.639 246.287 127.489 246.193 127.317 246.134C127.149 246.072 126.959 246.041 126.748 246.041C126.491 246.041 126.262 246.089 126.063 246.187C125.864 246.281 125.696 246.431 125.559 246.638C125.426 246.845 125.325 247.117 125.254 247.453C125.184 247.789 125.149 248.197 125.149 248.677V250.335C125.149 250.718 125.17 251.056 125.213 251.349C125.26 251.642 125.329 251.896 125.418 252.111C125.508 252.322 125.618 252.496 125.747 252.632C125.875 252.769 126.024 252.871 126.192 252.937C126.364 253 126.553 253.031 126.76 253.031C127.026 253.031 127.258 252.98 127.457 252.878C127.657 252.777 127.823 252.619 127.956 252.404C128.092 252.185 128.194 251.906 128.26 251.566C128.327 251.222 128.36 250.812 128.36 250.335ZM136.61 250.933V251.824H130.446V251.185L134.266 245.273H135.151L134.202 246.984L131.676 250.933H136.61ZM135.42 245.273V253.804H134.336V245.273H135.42Z" fill="#1C1B1F"/>
<path d="M409.2 249.005H409.974C410.353 249.005 410.665 248.943 410.911 248.818C411.161 248.689 411.347 248.515 411.468 248.296C411.593 248.074 411.656 247.824 411.656 247.546C411.656 247.218 411.601 246.943 411.491 246.72C411.382 246.498 411.218 246.33 410.999 246.216C410.781 246.103 410.503 246.046 410.167 246.046C409.863 246.046 409.593 246.107 409.359 246.228C409.128 246.345 408.947 246.513 408.814 246.732C408.685 246.951 408.62 247.208 408.62 247.505H407.536C407.536 247.072 407.646 246.677 407.864 246.322C408.083 245.966 408.39 245.683 408.784 245.472C409.183 245.261 409.644 245.156 410.167 245.156C410.683 245.156 411.134 245.248 411.521 245.431C411.907 245.611 412.208 245.88 412.423 246.24C412.638 246.595 412.745 247.039 412.745 247.57C412.745 247.785 412.695 248.015 412.593 248.261C412.495 248.503 412.341 248.73 412.13 248.941C411.923 249.152 411.654 249.326 411.322 249.462C410.989 249.595 410.591 249.662 410.126 249.662H409.2V249.005ZM409.2 249.896V249.246H410.126C410.669 249.246 411.118 249.31 411.474 249.439C411.829 249.568 412.109 249.74 412.312 249.955C412.519 250.169 412.663 250.406 412.745 250.664C412.831 250.917 412.874 251.171 412.874 251.425C412.874 251.824 412.806 252.177 412.669 252.486C412.536 252.794 412.347 253.056 412.101 253.271C411.859 253.486 411.573 253.648 411.245 253.757C410.917 253.867 410.56 253.921 410.173 253.921C409.802 253.921 409.452 253.869 409.124 253.763C408.8 253.658 408.513 253.505 408.263 253.306C408.013 253.103 407.818 252.855 407.677 252.562C407.536 252.265 407.466 251.927 407.466 251.548H408.55C408.55 251.845 408.614 252.105 408.743 252.328C408.876 252.55 409.064 252.724 409.306 252.849C409.552 252.97 409.841 253.031 410.173 253.031C410.505 253.031 410.79 252.974 411.029 252.861C411.271 252.744 411.456 252.568 411.585 252.333C411.718 252.099 411.784 251.804 411.784 251.449C411.784 251.093 411.71 250.802 411.562 250.576C411.413 250.345 411.202 250.175 410.929 250.066C410.659 249.953 410.341 249.896 409.974 249.896H409.2ZM419.724 248.859V250.16C419.724 250.859 419.661 251.449 419.536 251.929C419.411 252.41 419.232 252.796 418.997 253.089C418.763 253.382 418.48 253.595 418.148 253.728C417.82 253.857 417.448 253.921 417.034 253.921C416.706 253.921 416.404 253.88 416.126 253.798C415.849 253.716 415.599 253.585 415.376 253.406C415.157 253.222 414.97 252.984 414.814 252.691C414.657 252.398 414.538 252.042 414.456 251.625C414.374 251.207 414.333 250.718 414.333 250.16V248.859C414.333 248.16 414.396 247.574 414.521 247.101C414.65 246.628 414.831 246.25 415.066 245.964C415.3 245.675 415.581 245.468 415.909 245.343C416.241 245.218 416.613 245.156 417.023 245.156C417.355 245.156 417.659 245.197 417.937 245.279C418.218 245.357 418.468 245.484 418.687 245.66C418.906 245.832 419.091 246.062 419.243 246.351C419.4 246.636 419.519 246.986 419.601 247.4C419.683 247.814 419.724 248.3 419.724 248.859ZM418.634 250.335V248.677C418.634 248.294 418.611 247.958 418.564 247.669C418.521 247.376 418.456 247.126 418.37 246.919C418.284 246.712 418.175 246.544 418.042 246.416C417.913 246.287 417.763 246.193 417.591 246.134C417.423 246.072 417.234 246.041 417.023 246.041C416.765 246.041 416.536 246.089 416.337 246.187C416.138 246.281 415.97 246.431 415.833 246.638C415.7 246.845 415.599 247.117 415.529 247.453C415.458 247.789 415.423 248.197 415.423 248.677V250.335C415.423 250.718 415.445 251.056 415.488 251.349C415.534 251.642 415.603 251.896 415.693 252.111C415.782 252.322 415.892 252.496 416.021 252.632C416.15 252.769 416.298 252.871 416.466 252.937C416.638 253 416.827 253.031 417.034 253.031C417.3 253.031 417.532 252.98 417.732 252.878C417.931 252.777 418.097 252.619 418.23 252.404C418.366 252.185 418.468 251.906 418.534 251.566C418.601 251.222 418.634 250.812 418.634 250.335Z" fill="#1C1B1F"/>
<path d="M57.2569 248.859V250.16C57.2569 250.859 57.1944 251.449 57.0694 251.929C56.9444 252.41 56.7647 252.796 56.5303 253.089C56.2959 253.382 56.0127 253.595 55.6807 253.728C55.3526 253.857 54.9815 253.921 54.5674 253.921C54.2393 253.921 53.9365 253.88 53.6592 253.798C53.3819 253.716 53.1319 253.585 52.9092 253.406C52.6905 253.222 52.503 252.984 52.3467 252.691C52.1905 252.398 52.0713 252.042 51.9893 251.625C51.9072 251.207 51.8662 250.718 51.8662 250.16V248.859C51.8662 248.16 51.9287 247.574 52.0537 247.101C52.1826 246.628 52.3643 246.25 52.5987 245.964C52.833 245.675 53.1143 245.468 53.4424 245.343C53.7744 245.218 54.1455 245.156 54.5557 245.156C54.8877 245.156 55.1924 245.197 55.4697 245.279C55.751 245.357 56.001 245.484 56.2197 245.66C56.4385 245.832 56.624 246.062 56.7764 246.351C56.9326 246.636 57.0518 246.986 57.1338 247.4C57.2158 247.814 57.2569 248.3 57.2569 248.859ZM56.167 250.335V248.677C56.167 248.294 56.1436 247.958 56.0967 247.669C56.0537 247.376 55.9893 247.126 55.9033 246.919C55.8174 246.712 55.708 246.544 55.5752 246.416C55.4463 246.287 55.2959 246.193 55.124 246.134C54.9561 246.072 54.7666 246.041 54.5557 246.041C54.2979 246.041 54.0694 246.089 53.8701 246.187C53.6709 246.281 53.503 246.431 53.3662 246.638C53.2334 246.845 53.1319 247.117 53.0615 247.453C52.9912 247.789 52.9561 248.197 52.9561 248.677V250.335C52.9561 250.718 52.9776 251.056 53.0205 251.349C53.0674 251.642 53.1358 251.896 53.2256 252.111C53.3155 252.322 53.4248 252.496 53.5537 252.632C53.6826 252.769 53.8311 252.871 53.999 252.937C54.1709 253 54.3604 253.031 54.5674 253.031C54.833 253.031 55.0655 252.98 55.2647 252.878C55.4639 252.777 55.6299 252.619 55.7627 252.404C55.8994 252.185 56.001 251.906 56.0674 251.566C56.1338 251.222 56.167 250.812 56.167 250.335ZM64.2412 252.914V253.804H58.6572V253.025L61.4522 249.914C61.7959 249.531 62.0615 249.207 62.249 248.941C62.4405 248.671 62.5733 248.431 62.6475 248.22C62.7256 248.005 62.7647 247.787 62.7647 247.564C62.7647 247.283 62.7061 247.029 62.5889 246.802C62.4756 246.572 62.3076 246.388 62.085 246.251C61.8623 246.115 61.5928 246.046 61.2764 246.046C60.8975 246.046 60.5811 246.121 60.3272 246.269C60.0772 246.414 59.8897 246.617 59.7647 246.878C59.6397 247.14 59.5772 247.441 59.5772 247.781H58.4932C58.4932 247.3 58.5987 246.861 58.8096 246.462C59.0205 246.064 59.333 245.748 59.7471 245.513C60.1612 245.275 60.6709 245.156 61.2764 245.156C61.8155 245.156 62.2764 245.251 62.6592 245.443C63.042 245.63 63.335 245.896 63.5381 246.24C63.7451 246.58 63.8487 246.978 63.8487 247.435C63.8487 247.685 63.8057 247.939 63.7197 248.197C63.6377 248.451 63.5225 248.705 63.374 248.958C63.2295 249.212 63.0596 249.462 62.8643 249.708C62.6729 249.955 62.4678 250.197 62.249 250.435L59.9639 252.914H64.2412Z" fill="#1C1B1F"/>
<path d="M2.02208 6.375H2.79552C3.0963 6.375 3.34516 6.32308 3.5421 6.21924C3.74262 6.1154 3.89122 5.97217 3.9879 5.78955C4.08458 5.60693 4.13292 5.39746 4.13292 5.16113C4.13292 4.91406 4.08816 4.7028 3.99865 4.52734C3.91271 4.34831 3.78022 4.21045 3.60118 4.11377C3.42573 4.01709 3.20193 3.96875 2.9298 3.96875C2.70063 3.96875 2.49295 4.0153 2.30675 4.1084C2.12413 4.19792 1.97911 4.32682 1.87169 4.49512C1.76427 4.65983 1.71056 4.85677 1.71056 5.08594H0.410755C0.410755 4.67057 0.519967 4.30176 0.738392 3.97949C0.956816 3.65723 1.25402 3.40479 1.62999 3.22217C2.00955 3.03597 2.43566 2.94287 2.90831 2.94287C3.4132 2.94287 3.85363 3.02702 4.2296 3.19531C4.60916 3.36003 4.90457 3.6071 5.11583 3.93652C5.3271 4.26595 5.43273 4.67415 5.43273 5.16113C5.43273 5.38314 5.38081 5.60872 5.27697 5.83789C5.17312 6.06706 5.01915 6.27653 4.81505 6.46631C4.61095 6.65251 4.35672 6.80469 4.05236 6.92285C3.74799 7.03743 3.39529 7.09473 2.99425 7.09473H2.02208V6.375ZM2.02208 7.38477V6.67578H2.99425C3.45258 6.67578 3.84288 6.72949 4.16515 6.83691C4.491 6.94434 4.75597 7.09294 4.96007 7.28271C5.16417 7.46891 5.31277 7.68197 5.40587 7.92188C5.50255 8.16178 5.55089 8.41602 5.55089 8.68457C5.55089 9.0498 5.48465 9.37565 5.35216 9.66211C5.22326 9.94499 5.03885 10.1849 4.79894 10.3818C4.55903 10.5788 4.27794 10.7274 3.95568 10.8276C3.63699 10.9279 3.28966 10.978 2.91368 10.978C2.5771 10.978 2.25483 10.9315 1.94689 10.8384C1.63895 10.7453 1.36323 10.6074 1.11974 10.4248C0.87625 10.2386 0.682891 10.0076 0.539661 9.73193C0.400013 9.45264 0.330189 9.13037 0.330189 8.76514H1.62462C1.62462 8.99788 1.67833 9.20378 1.78576 9.38281C1.89676 9.55827 2.05073 9.69613 2.24767 9.79639C2.44819 9.89665 2.67736 9.94678 2.93517 9.94678C3.2073 9.94678 3.44184 9.89844 3.63878 9.80176C3.83572 9.70508 3.98611 9.56185 4.08995 9.37207C4.19738 9.18229 4.25109 8.95312 4.25109 8.68457C4.25109 8.38021 4.19201 8.13314 4.07384 7.94336C3.95568 7.75358 3.78738 7.61393 3.56896 7.52441C3.35053 7.43132 3.09272 7.38477 2.79552 7.38477H2.02208ZM11.8512 6.30518V7.5835C11.8512 8.1958 11.7903 8.71859 11.6686 9.15186C11.5504 9.58154 11.3785 9.93066 11.1529 10.1992C10.9274 10.4678 10.657 10.6647 10.3419 10.79C10.0304 10.9154 9.68126 10.978 9.29454 10.978C8.9866 10.978 8.70014 10.9386 8.43517 10.8599C8.17378 10.7811 7.93745 10.6576 7.72618 10.4893C7.51492 10.321 7.3341 10.1043 7.1837 9.83936C7.03689 9.5708 6.92231 9.25033 6.83995 8.87793C6.76118 8.50553 6.72179 8.07406 6.72179 7.5835V6.30518C6.72179 5.68929 6.78266 5.17008 6.90441 4.74756C7.02615 4.32145 7.19982 3.97591 7.4254 3.71094C7.65099 3.44238 7.91954 3.24723 8.23107 3.12549C8.54617 3.00374 8.89708 2.94287 9.2838 2.94287C9.59533 2.94287 9.88178 2.98226 10.1432 3.06104C10.4082 3.13623 10.6445 3.25618 10.8522 3.4209C11.0634 3.58561 11.2425 3.80046 11.3893 4.06543C11.5397 4.32682 11.6542 4.64372 11.733 5.01611C11.8118 5.38493 11.8512 5.81462 11.8512 6.30518ZM10.5568 7.76611V6.11182C10.5568 5.80029 10.5388 5.52637 10.503 5.29004C10.4672 5.05013 10.4135 4.84782 10.3419 4.68311C10.2739 4.51481 10.1879 4.37874 10.0841 4.2749C9.98025 4.16748 9.86209 4.09049 9.7296 4.04395C9.59712 3.99382 9.44852 3.96875 9.2838 3.96875C9.08328 3.96875 8.90424 4.00814 8.74669 4.08691C8.58914 4.16211 8.45665 4.28385 8.34923 4.45215C8.24181 4.62044 8.15945 4.84245 8.10216 5.11816C8.04845 5.3903 8.0216 5.72152 8.0216 6.11182V7.76611C8.0216 8.08122 8.0395 8.35872 8.07531 8.59863C8.11111 8.83854 8.16482 9.04443 8.23644 9.21631C8.30805 9.3846 8.39399 9.52425 8.49425 9.63525C8.59809 9.74268 8.71626 9.82145 8.84874 9.87158C8.98481 9.92171 9.13341 9.94678 9.29454 9.94678C9.49865 9.94678 9.67947 9.90739 9.83702 9.82861C9.99458 9.74984 10.1271 9.62451 10.2345 9.45264C10.3419 9.27718 10.4225 9.0498 10.4762 8.77051C10.5299 8.49121 10.5568 8.15641 10.5568 7.76611ZM18.1031 6.30518V7.5835C18.1031 8.1958 18.0423 8.71859 17.9205 9.15186C17.8024 9.58154 17.6305 9.93066 17.4049 10.1992C17.1793 10.4678 16.909 10.6647 16.5939 10.79C16.2823 10.9154 15.9332 10.978 15.5465 10.978C15.2386 10.978 14.9521 10.9386 14.6871 10.8599C14.4257 10.7811 14.1894 10.6576 13.9781 10.4893C13.7669 10.321 13.586 10.1043 13.4357 9.83936C13.2888 9.5708 13.1743 9.25033 13.0919 8.87793C13.0131 8.50553 12.9737 8.07406 12.9737 7.5835V6.30518C12.9737 5.68929 13.0346 5.17008 13.1564 4.74756C13.2781 4.32145 13.4518 3.97591 13.6774 3.71094C13.9029 3.44238 14.1715 3.24723 14.483 3.12549C14.7981 3.00374 15.149 2.94287 15.5358 2.94287C15.8473 2.94287 16.1337 2.98226 16.3951 3.06104C16.6601 3.13623 16.8964 3.25618 17.1041 3.4209C17.3154 3.58561 17.4944 3.80046 17.6412 4.06543C17.7916 4.32682 17.9062 4.64372 17.985 5.01611C18.0637 5.38493 18.1031 5.81462 18.1031 6.30518ZM16.8087 7.76611V6.11182C16.8087 5.80029 16.7908 5.52637 16.755 5.29004C16.7192 5.05013 16.6655 4.84782 16.5939 4.68311C16.5258 4.51481 16.4399 4.37874 16.336 4.2749C16.2322 4.16748 16.114 4.09049 15.9816 4.04395C15.8491 3.99382 15.7005 3.96875 15.5358 3.96875C15.3352 3.96875 15.1562 4.00814 14.9986 4.08691C14.8411 4.16211 14.7086 4.28385 14.6012 4.45215C14.4938 4.62044 14.4114 4.84245 14.3541 5.11816C14.3004 5.3903 14.2735 5.72152 14.2735 6.11182V7.76611C14.2735 8.08122 14.2915 8.35872 14.3273 8.59863C14.3631 8.83854 14.4168 9.04443 14.4884 9.21631C14.56 9.3846 14.6459 9.52425 14.7462 9.63525C14.85 9.74268 14.9682 9.82145 15.1007 9.87158C15.2368 9.92171 15.3854 9.94678 15.5465 9.94678C15.7506 9.94678 15.9314 9.90739 16.089 9.82861C16.2465 9.74984 16.379 9.62451 16.4864 9.45264C16.5939 9.27718 16.6744 9.0498 16.7281 8.77051C16.7818 8.49121 16.8087 8.15641 16.8087 7.76611ZM24.3551 6.30518V7.5835C24.3551 8.1958 24.2942 8.71859 24.1725 9.15186C24.0543 9.58154 23.8824 9.93066 23.6568 10.1992C23.4313 10.4678 23.1609 10.6647 22.8458 10.79C22.5343 10.9154 22.1852 10.978 21.7985 10.978C21.4905 10.978 21.204 10.9386 20.9391 10.8599C20.6777 10.7811 20.4414 10.6576 20.2301 10.4893C20.0188 10.321 19.838 10.1043 19.6876 9.83936C19.5408 9.5708 19.4262 9.25033 19.3439 8.87793C19.2651 8.50553 19.2257 8.07406 19.2257 7.5835V6.30518C19.2257 5.68929 19.2866 5.17008 19.4083 4.74756C19.5301 4.32145 19.7037 3.97591 19.9293 3.71094C20.1549 3.44238 20.4235 3.24723 20.735 3.12549C21.0501 3.00374 21.401 2.94287 21.7877 2.94287C22.0992 2.94287 22.3857 2.98226 22.6471 3.06104C22.9121 3.13623 23.1484 3.25618 23.3561 3.4209C23.5673 3.58561 23.7464 3.80046 23.8932 4.06543C24.0436 4.32682 24.1582 4.64372 24.2369 5.01611C24.3157 5.38493 24.3551 5.81462 24.3551 6.30518ZM23.0607 7.76611V6.11182C23.0607 5.80029 23.0428 5.52637 23.0069 5.29004C22.9711 5.05013 22.9174 4.84782 22.8458 4.68311C22.7778 4.51481 22.6918 4.37874 22.588 4.2749C22.4842 4.16748 22.366 4.09049 22.2335 4.04395C22.101 3.99382 21.9524 3.96875 21.7877 3.96875C21.5872 3.96875 21.4082 4.00814 21.2506 4.08691C21.093 4.16211 20.9606 4.28385 20.8531 4.45215C20.7457 4.62044 20.6634 4.84245 20.6061 5.11816C20.5524 5.3903 20.5255 5.72152 20.5255 6.11182V7.76611C20.5255 8.08122 20.5434 8.35872 20.5792 8.59863C20.615 8.83854 20.6687 9.04443 20.7403 9.21631C20.812 9.3846 20.8979 9.52425 20.9982 9.63525C21.102 9.74268 21.2202 9.82145 21.3526 9.87158C21.4887 9.92171 21.6373 9.94678 21.7985 9.94678C22.0026 9.94678 22.1834 9.90739 22.3409 9.82861C22.4985 9.74984 22.631 9.62451 22.7384 9.45264C22.8458 9.27718 22.9264 9.0498 22.9801 8.77051C23.0338 8.49121 23.0607 8.15641 23.0607 7.76611ZM25.6388 10.2261C25.6388 10.0256 25.7068 9.85726 25.8429 9.72119C25.979 9.58154 26.1634 9.51172 26.3961 9.51172C26.6324 9.51172 26.8168 9.58154 26.9493 9.72119C27.0854 9.85726 27.1534 10.0256 27.1534 10.2261C27.1534 10.4266 27.0854 10.5949 26.9493 10.731C26.8168 10.867 26.6324 10.9351 26.3961 10.9351C26.1634 10.9351 25.979 10.867 25.8429 10.731C25.7068 10.5949 25.6388 10.4266 25.6388 10.2261ZM28.7003 10.2261C28.7003 10.0256 28.7683 9.85726 28.9044 9.72119C29.0405 9.58154 29.2249 9.51172 29.4576 9.51172C29.694 9.51172 29.8784 9.58154 30.0109 9.72119C30.1469 9.85726 30.215 10.0256 30.215 10.2261C30.215 10.4266 30.1469 10.5949 30.0109 10.731C29.8784 10.867 29.694 10.9351 29.4576 10.9351C29.2249 10.9351 29.0405 10.867 28.9044 10.731C28.7683 10.5949 28.7003 10.4266 28.7003 10.2261Z" fill="#1C1B1F"/>
<path d="M10.4959 57.6323V58.6636H5.25367V57.7773L7.79957 55.0005C8.07886 54.6854 8.29908 54.4132 8.46021 54.1841C8.62134 53.9549 8.73414 53.749 8.79859 53.5664C8.86662 53.3802 8.90064 53.1994 8.90064 53.0239C8.90064 52.7769 8.85409 52.5602 8.76099 52.374C8.67147 52.1842 8.53899 52.0356 8.36353 51.9282C8.18808 51.8172 7.97502 51.7617 7.72437 51.7617C7.43433 51.7617 7.19084 51.8244 6.9939 51.9497C6.79696 52.075 6.64836 52.2487 6.5481 52.4707C6.44784 52.6891 6.39771 52.9398 6.39771 53.2227H5.10328C5.10328 52.7679 5.20712 52.3525 5.4148 51.9766C5.62248 51.597 5.92326 51.2962 6.31714 51.0742C6.71102 50.8486 7.18547 50.7358 7.74048 50.7358C8.26327 50.7358 8.70728 50.8236 9.07252 50.999C9.43775 51.1745 9.71526 51.4233 9.90504 51.7456C10.0984 52.0679 10.1951 52.4492 10.1951 52.8896C10.1951 53.1331 10.1557 53.3748 10.0769 53.6147C9.99813 53.8547 9.88534 54.0946 9.73853 54.3345C9.5953 54.5708 9.42522 54.8089 9.22828 55.0488C9.03134 55.2852 8.8147 55.5251 8.57837 55.7686L6.88648 57.6323H10.4959ZM16.6189 56.5312C16.6189 57.0182 16.5061 57.4282 16.2805 57.7612C16.0549 58.0942 15.747 58.3467 15.3567 58.5186C14.97 58.6868 14.5331 58.771 14.0461 58.771C13.5592 58.771 13.1205 58.6868 12.7302 58.5186C12.3399 58.3467 12.032 58.0942 11.8064 57.7612C11.5808 57.4282 11.468 57.0182 11.468 56.5312C11.468 56.209 11.5307 55.9172 11.656 55.6558C11.7813 55.3908 11.9586 55.1634 12.1877 54.9736C12.4205 54.7803 12.6926 54.6317 13.0042 54.5278C13.3193 54.424 13.663 54.3721 14.0354 54.3721C14.5295 54.3721 14.9718 54.4634 15.3621 54.646C15.7524 54.8286 16.0585 55.0811 16.2805 55.4033C16.5061 55.7256 16.6189 56.1016 16.6189 56.5312ZM15.3191 56.4668C15.3191 56.2054 15.2654 55.9762 15.158 55.7793C15.0505 55.5824 14.9002 55.4302 14.7068 55.3228C14.5134 55.2153 14.2896 55.1616 14.0354 55.1616C13.7776 55.1616 13.5538 55.2153 13.364 55.3228C13.1742 55.4302 13.0256 55.5824 12.9182 55.7793C12.8144 55.9762 12.7625 56.2054 12.7625 56.4668C12.7625 56.7318 12.8144 56.9609 12.9182 57.1543C13.0221 57.3441 13.1707 57.4891 13.364 57.5894C13.5574 57.6896 13.7848 57.7397 14.0461 57.7397C14.3075 57.7397 14.5331 57.6896 14.7229 57.5894C14.9127 57.4891 15.0595 57.3441 15.1633 57.1543C15.2672 56.9609 15.3191 56.7318 15.3191 56.4668ZM16.4417 52.9004C16.4417 53.2907 16.3378 53.638 16.1301 53.9424C15.926 54.2467 15.6432 54.4867 15.2815 54.6621C14.9198 54.834 14.5081 54.9199 14.0461 54.9199C13.5807 54.9199 13.1653 54.834 12.8001 54.6621C12.4384 54.4867 12.1537 54.2467 11.9461 53.9424C11.7419 53.638 11.6399 53.2907 11.6399 52.9004C11.6399 52.4349 11.7419 52.0428 11.9461 51.7241C12.1537 51.4019 12.4384 51.1566 12.8001 50.9883C13.1617 50.82 13.5753 50.7358 14.0408 50.7358C14.5063 50.7358 14.9198 50.82 15.2815 50.9883C15.6432 51.1566 15.926 51.4019 16.1301 51.7241C16.3378 52.0428 16.4417 52.4349 16.4417 52.9004ZM15.1472 52.9434C15.1472 52.7106 15.1007 52.5065 15.0076 52.3311C14.9181 52.152 14.7909 52.0124 14.6262 51.9121C14.4615 51.8118 14.2664 51.7617 14.0408 51.7617C13.8152 51.7617 13.62 51.8101 13.4553 51.9067C13.2906 52.0034 13.1635 52.1395 13.074 52.3149C12.9845 52.4904 12.9397 52.6999 12.9397 52.9434C12.9397 53.1833 12.9845 53.3927 13.074 53.5718C13.1635 53.7472 13.2906 53.8851 13.4553 53.9854C13.6236 54.0856 13.8206 54.1357 14.0461 54.1357C14.2717 54.1357 14.4669 54.0856 14.6316 53.9854C14.7963 53.8851 14.9234 53.7472 15.0129 53.5718C15.1025 53.3927 15.1472 53.1833 15.1472 52.9434Z" fill="#1C1B1F"/>
<path d="M11.3736 112.781V113.812H6.13138V112.926L8.67728 110.149C8.95658 109.834 9.17679 109.562 9.33792 109.333C9.49906 109.103 9.61185 108.897 9.6763 108.715C9.74434 108.529 9.77835 108.348 9.77835 108.172C9.77835 107.925 9.7318 107.709 9.63871 107.522C9.54919 107.333 9.4167 107.184 9.24124 107.077C9.06579 106.966 8.85274 106.91 8.60208 106.91C8.31205 106.91 8.06856 106.973 7.87162 107.098C7.67468 107.223 7.52608 107.397 7.42581 107.619C7.32555 107.838 7.27542 108.088 7.27542 108.371H5.98099C5.98099 107.916 6.08483 107.501 6.29251 107.125C6.5002 106.745 6.80098 106.445 7.19486 106.223C7.58874 105.997 8.06318 105.884 8.6182 105.884C9.14098 105.884 9.58499 105.972 9.95023 106.147C10.3155 106.323 10.593 106.572 10.7827 106.894C10.9761 107.216 11.0728 107.598 11.0728 108.038C11.0728 108.282 11.0334 108.523 10.9546 108.763C10.8758 109.003 10.7631 109.243 10.6162 109.483C10.473 109.719 10.3029 109.957 10.106 110.197C9.90905 110.434 9.69242 110.674 9.45609 110.917L7.76419 112.781H11.3736ZM17.5772 105.992V106.701L14.4512 113.812H13.0869L16.2076 107.023H12.1577V105.992H17.5772Z" fill="#1C1B1F"/>
<path d="M11.9568 166.515V167.546H6.71461V166.66L9.2605 163.883C9.5398 163.568 9.76002 163.296 9.92115 163.067C10.0823 162.838 10.1951 162.632 10.2595 162.449C10.3276 162.263 10.3616 162.082 10.3616 161.907C10.3616 161.66 10.315 161.443 10.2219 161.257C10.1324 161.067 9.99992 160.918 9.82447 160.811C9.64901 160.7 9.43596 160.645 9.18531 160.645C8.89527 160.645 8.65178 160.707 8.45484 160.833C8.2579 160.958 8.1093 161.132 8.00904 161.354C7.90878 161.572 7.85865 161.823 7.85865 162.105H6.56421C6.56421 161.651 6.66806 161.235 6.87574 160.859C7.08342 160.48 7.3842 160.179 7.77808 159.957C8.17196 159.731 8.64641 159.619 9.20142 159.619C9.72421 159.619 10.1682 159.706 10.5335 159.882C10.8987 160.057 11.1762 160.306 11.366 160.628C11.5593 160.951 11.656 161.332 11.656 161.772C11.656 162.016 11.6166 162.258 11.5378 162.498C11.4591 162.737 11.3463 162.977 11.1995 163.217C11.0562 163.454 10.8862 163.692 10.6892 163.932C10.4923 164.168 10.2756 164.408 10.0393 164.651L8.34742 166.515H11.9568ZM16.8767 159.678H17.0378V160.736H16.9465C16.4846 160.736 16.0854 160.807 15.7488 160.951C15.4158 161.094 15.1419 161.291 14.927 161.542C14.7122 161.792 14.551 162.086 14.4436 162.422C14.3398 162.755 14.2878 163.11 14.2878 163.486V164.716C14.2878 165.027 14.3219 165.303 14.3899 165.543C14.4579 165.779 14.5528 165.978 14.6746 166.139C14.7999 166.297 14.9431 166.417 15.1043 166.499C15.2654 166.581 15.4391 166.623 15.6252 166.623C15.8186 166.623 15.9941 166.583 16.1516 166.504C16.3092 166.422 16.4434 166.309 16.5544 166.166C16.6655 166.023 16.7496 165.853 16.8069 165.656C16.8642 165.459 16.8928 165.244 16.8928 165.011C16.8928 164.789 16.8642 164.582 16.8069 164.388C16.7532 164.191 16.6726 164.019 16.5652 163.873C16.4578 163.722 16.3235 163.606 16.1624 163.523C16.0048 163.438 15.8222 163.395 15.6145 163.395C15.3567 163.395 15.1222 163.455 14.9109 163.577C14.7032 163.699 14.5349 163.858 14.406 164.055C14.2807 164.249 14.2127 164.454 14.2019 164.673L13.7078 164.512C13.7364 164.179 13.8098 163.88 13.928 163.615C14.0497 163.35 14.2091 163.124 14.406 162.938C14.603 162.752 14.8303 162.61 15.0881 162.514C15.3495 162.413 15.636 162.363 15.9475 162.363C16.3271 162.363 16.6565 162.435 16.9358 162.578C17.2151 162.721 17.4461 162.917 17.6287 163.164C17.8149 163.407 17.9527 163.686 18.0422 164.001C18.1353 164.313 18.1819 164.639 18.1819 164.979C18.1819 165.355 18.1246 165.706 18.01 166.032C17.8954 166.354 17.7271 166.637 17.5051 166.88C17.2867 167.124 17.0199 167.314 16.7048 167.45C16.3933 167.586 16.0388 167.654 15.6414 167.654C15.2224 167.654 14.8482 167.573 14.5188 167.412C14.193 167.251 13.9155 167.029 13.6863 166.746C13.4607 166.463 13.2888 166.137 13.1707 165.769C13.0525 165.4 12.9934 165.009 12.9934 164.598V164.061C12.9934 163.466 13.0686 162.906 13.219 162.379C13.3694 161.849 13.6003 161.382 13.9119 160.978C14.227 160.573 14.6298 160.256 15.1204 160.027C15.6109 159.794 16.1964 159.678 16.8767 159.678Z" fill="#1C1B1F"/>
<path d="M10.9174 211.918V219.766H9.62294V213.455L7.70545 214.104V213.036L10.7616 211.918H10.9174ZM18.7323 215.2V216.479C18.7323 217.091 18.6714 217.614 18.5497 218.047C18.4315 218.477 18.2597 218.826 18.0341 219.094C17.8085 219.363 17.5381 219.56 17.223 219.685C16.9115 219.81 16.5624 219.873 16.1757 219.873C15.8677 219.873 15.5813 219.834 15.3163 219.755C15.0549 219.676 14.8186 219.553 14.6073 219.384C14.396 219.216 14.2152 218.999 14.0648 218.734C13.918 218.466 13.8034 218.145 13.7211 217.773C13.6423 217.401 13.6029 216.969 13.6029 216.479V215.2C13.6029 214.584 13.6638 214.065 13.7855 213.643C13.9073 213.216 14.0809 212.871 14.3065 212.606C14.5321 212.337 14.8007 212.142 15.1122 212.021C15.4273 211.899 15.7782 211.838 16.1649 211.838C16.4765 211.838 16.7629 211.877 17.0243 211.956C17.2893 212.031 17.5256 212.151 17.7333 212.316C17.9445 212.481 18.1236 212.695 18.2704 212.96C18.4208 213.222 18.5354 213.539 18.6141 213.911C18.6929 214.28 18.7323 214.71 18.7323 215.2ZM17.4379 216.661V215.007C17.4379 214.695 17.42 214.421 17.3842 214.185C17.3484 213.945 17.2946 213.743 17.223 213.578C17.155 213.41 17.0691 213.274 16.9652 213.17C16.8614 213.062 16.7432 212.986 16.6107 212.939C16.4782 212.889 16.3296 212.864 16.1649 212.864C15.9644 212.864 15.7854 212.903 15.6278 212.982C15.4703 213.057 15.3378 213.179 15.2304 213.347C15.1229 213.515 15.0406 213.737 14.9833 214.013C14.9296 214.285 14.9027 214.617 14.9027 215.007V216.661C14.9027 216.976 14.9206 217.254 14.9564 217.494C14.9922 217.734 15.0459 217.939 15.1176 218.111C15.1892 218.28 15.2751 218.419 15.3754 218.53C15.4792 218.638 15.5974 218.716 15.7299 218.767C15.8659 218.817 16.0145 218.842 16.1757 218.842C16.3798 218.842 16.5606 218.802 16.7182 218.724C16.8757 218.645 17.0082 218.52 17.1156 218.348C17.223 218.172 17.3036 217.945 17.3573 217.666C17.411 217.386 17.4379 217.051 17.4379 216.661ZM20.016 219.121C20.016 218.921 20.084 218.752 20.2201 218.616C20.3562 218.477 20.5406 218.407 20.7733 218.407C21.0097 218.407 21.1941 218.477 21.3265 218.616C21.4626 218.752 21.5307 218.921 21.5307 219.121C21.5307 219.322 21.4626 219.49 21.3265 219.626C21.1941 219.762 21.0097 219.83 20.7733 219.83C20.5406 219.83 20.3562 219.762 20.2201 219.626C20.084 219.49 20.016 219.322 20.016 219.121ZM23.0775 219.121C23.0775 218.921 23.1456 218.752 23.2816 218.616C23.4177 218.477 23.6021 218.407 23.8349 218.407C24.0712 218.407 24.2556 218.477 24.3881 218.616C24.5241 218.752 24.5922 218.921 24.5922 219.121C24.5922 219.322 24.5241 219.49 24.3881 219.626C24.2556 219.762 24.0712 219.83 23.8349 219.83C23.6021 219.83 23.4177 219.762 23.2816 219.626C23.1456 219.49 23.0775 219.322 23.0775 219.121Z" fill="#1C1B1F"/>
<path d="M46.2822 217.058H428.999" stroke="#D4D4D4" stroke-width="1.25231" stroke-linecap="square"/>
<path d="M46.2822 164.738H428.999" stroke="#D4D4D4" stroke-width="1.25231" stroke-linecap="square"/>
<path d="M46.2822 112.417H428.999" stroke="#D4D4D4" stroke-width="1.25231" stroke-linecap="square"/>
<path d="M46.2822 60.0977H428.999" stroke="#D4D4D4" stroke-width="1.25231" stroke-linecap="square"/>
<path d="M46.2832 7.77734H429" stroke="#D4D4D4" stroke-width="1.25231" stroke-linecap="square"/>
<path d="M52.4893 132.983C54.2301 130.835 61.6185 135.636 70.6575 132.913C77.7748 130.768 83.9661 123.882 93.0779 121.802C110.372 117.852 124.487 113.794 132.507 104.361C140.527 94.9281 152.565 62.9445 166.911 62.9445C181.256 62.9445 188.558 79.5805 193.97 90.5392C199.153 101.036 209.138 126.246 225.281 129.026C243.1 132.094 257.752 150.803 279.013 153.948C290.344 155.624 299.422 152.362 309.551 147.293C319.679 142.224 317.697 140.035 340.476 136.128C359.274 132.903 364.191 121.802 382.611 120.466C401.031 119.13 409.55 160.931 428.998 157.442" stroke="#383577" stroke-width="2.50462" stroke-linecap="round" stroke-linejoin="round"/>
</svg>
