<svg width="91" height="30" viewBox="0 0 91 30" fill="none" xmlns="http://www.w3.org/2000/svg">
<path d="M14.596 29.36C12.508 29.36 10.588 29 8.836 28.28C7.084 27.56 5.56 26.552 4.264 25.256C2.992 23.96 1.996 22.436 1.276 20.684C0.58 18.932 0.232 17.012 0.232 14.924C0.232 12.86 0.58 10.952 1.276 9.2C1.996 7.448 2.992 5.924 4.264 4.628C5.56 3.332 7.084 2.324 8.836 1.604C10.588 0.883999 12.508 0.524 14.596 0.524C16.66 0.524 18.568 0.883999 20.32 1.604C22.072 2.324 23.596 3.332 24.892 4.628C26.188 5.924 27.184 7.448 27.88 9.2C28.6 10.952 28.96 12.86 28.96 14.924C28.96 17.012 28.6 18.932 27.88 20.684C27.184 22.436 26.188 23.96 24.892 25.256C23.596 26.552 22.072 27.56 20.32 28.28C18.568 29 16.66 29.36 14.596 29.36ZM14.596 26.696C16.252 26.696 17.788 26.408 19.204 25.832C20.62 25.232 21.844 24.404 22.876 23.348C23.932 22.268 24.748 21.02 25.324 19.604C25.9 18.164 26.188 16.604 26.188 14.924C26.188 13.268 25.9 11.732 25.324 10.316C24.748 8.876 23.932 7.628 22.876 6.572C21.844 5.492 20.62 4.664 19.204 4.088C17.788 3.488 16.252 3.188 14.596 3.188C12.916 3.188 11.368 3.488 9.952 4.088C8.536 4.664 7.3 5.492 6.244 6.572C5.212 7.628 4.408 8.876 3.832 10.316C3.256 11.732 2.968 13.268 2.968 14.924C2.968 16.604 3.256 18.164 3.832 19.604C4.408 21.02 5.212 22.268 6.244 23.348C7.3 24.404 8.536 25.232 9.952 25.832C11.368 26.408 12.916 26.696 14.596 26.696ZM35.5443 16.868C35.6163 15.38 36.0003 14.048 36.6963 12.872C37.4163 11.696 38.3403 10.772 39.4683 10.1C40.6203 9.428 41.8923 9.092 43.2843 9.092C44.3883 9.092 45.2403 9.248 45.8403 9.56C46.4403 9.872 46.6683 10.328 46.5243 10.928C46.4283 11.288 46.2603 11.528 46.0203 11.648C45.8043 11.768 45.5283 11.816 45.1923 11.792C44.8803 11.768 44.5203 11.744 44.1123 11.72C42.7683 11.6 41.5683 11.744 40.5123 12.152C39.4803 12.536 38.6523 13.136 38.0283 13.952C37.4283 14.768 37.1283 15.74 37.1283 16.868H35.5443ZM35.7603 29C35.3283 29 34.9923 28.88 34.7523 28.64C34.5123 28.4 34.3923 28.064 34.3923 27.632V10.676C34.3923 10.244 34.5123 9.908 34.7523 9.668C34.9923 9.428 35.3283 9.308 35.7603 9.308C36.1923 9.308 36.5283 9.428 36.7683 9.668C37.0083 9.908 37.1283 10.244 37.1283 10.676V27.632C37.1283 28.064 37.0083 28.4 36.7683 28.64C36.5283 28.88 36.1923 29 35.7603 29ZM60.8526 29.18C58.9806 29.18 57.2886 28.748 55.7766 27.884C54.2886 27.02 53.1006 25.844 52.2126 24.356C51.3486 22.844 50.9046 21.152 50.8806 19.28V2.288C50.8806 1.856 51.0006 1.52 51.2406 1.28C51.5046 1.016 51.8526 0.883999 52.2846 0.883999C52.6926 0.883999 53.0166 1.016 53.2566 1.28C53.5206 1.52 53.6526 1.856 53.6526 2.288V12.872C54.4446 11.744 55.4886 10.844 56.7846 10.172C58.1046 9.476 59.5686 9.128 61.1766 9.128C63.0246 9.128 64.6806 9.572 66.1446 10.46C67.6086 11.324 68.7606 12.512 69.6006 14.024C70.4646 15.536 70.8966 17.24 70.8966 19.136C70.8966 21.056 70.4526 22.772 69.5646 24.284C68.7006 25.796 67.5126 26.996 66.0006 27.884C64.4886 28.748 62.7726 29.18 60.8526 29.18ZM60.8526 26.66C62.2446 26.66 63.4926 26.336 64.5966 25.688C65.7006 25.016 66.5646 24.116 67.1886 22.988C67.8366 21.86 68.1606 20.576 68.1606 19.136C68.1606 17.72 67.8366 16.448 67.1886 15.32C66.5646 14.168 65.7006 13.268 64.5966 12.62C63.4926 11.972 62.2446 11.648 60.8526 11.648C59.4846 11.648 58.2486 11.972 57.1446 12.62C56.0406 13.268 55.1766 14.168 54.5526 15.32C53.9286 16.448 53.6166 17.72 53.6166 19.136C53.6166 20.576 53.9286 21.86 54.5526 22.988C55.1766 24.116 56.0406 25.016 57.1446 25.688C58.2486 26.336 59.4846 26.66 60.8526 26.66ZM83.2098 29.18C81.7938 29.18 80.3898 28.94 78.9978 28.46C77.6058 27.98 76.4778 27.26 75.6138 26.3C75.3498 26.012 75.2418 25.688 75.2898 25.328C75.3378 24.968 75.5178 24.656 75.8298 24.392C76.1658 24.152 76.5138 24.056 76.8738 24.104C77.2338 24.152 77.5338 24.308 77.7738 24.572C78.3498 25.244 79.1058 25.76 80.0418 26.12C81.0018 26.48 82.0578 26.66 83.2098 26.66C84.9858 26.66 86.2698 26.36 87.0618 25.76C87.8538 25.136 88.2618 24.392 88.2858 23.528C88.2858 22.664 87.8778 21.956 87.0618 21.404C86.2458 20.828 84.9018 20.384 83.0298 20.072C80.6058 19.688 78.8298 19.016 77.7018 18.056C76.5738 17.096 76.0098 15.956 76.0098 14.636C76.0098 13.412 76.3338 12.392 76.9818 11.576C77.6298 10.76 78.4938 10.148 79.5738 9.74C80.6538 9.332 81.8418 9.128 83.1378 9.128C84.7458 9.128 86.1258 9.404 87.2778 9.956C88.4538 10.508 89.4018 11.252 90.1218 12.188C90.3618 12.5 90.4578 12.824 90.4098 13.16C90.3618 13.496 90.1698 13.772 89.8338 13.988C89.5458 14.156 89.2098 14.216 88.8258 14.168C88.4658 14.096 88.1538 13.916 87.8898 13.628C87.2898 12.932 86.5938 12.428 85.8018 12.116C85.0098 11.78 84.0978 11.612 83.0658 11.612C81.7458 11.612 80.6898 11.888 79.8978 12.44C79.1058 12.968 78.7098 13.64 78.7098 14.456C78.7098 15.008 78.8538 15.488 79.1418 15.896C79.4538 16.304 79.9698 16.664 80.6898 16.976C81.4338 17.288 82.4658 17.552 83.7858 17.768C85.5858 18.056 87.0018 18.488 88.0338 19.064C89.0898 19.616 89.8338 20.276 90.2658 21.044C90.7218 21.788 90.9498 22.604 90.9498 23.492C90.9498 24.62 90.6138 25.616 89.9418 26.48C89.2938 27.32 88.3818 27.98 87.2058 28.46C86.0538 28.94 84.7218 29.18 83.2098 29.18Z" fill="black"/>
</svg>
